<?xml version="1.0" encoding="UTF-8"?>
<svg width="24px" height="24px" viewBox="0 0 24 24" version="1.1" xmlns="http://www.w3.org/2000/svg">
    <g stroke="none" stroke-width="1" fill="none" fill-rule="evenodd">
        <path d="M17.415,14.382 C17.117,14.233 15.656,13.515 15.384,13.415 C15.112,13.316 14.914,13.267 14.715,13.565 C14.517,13.861 13.948,14.531 13.775,14.729 C13.601,14.927 13.428,14.952 13.131,14.803 C12.834,14.654 11.876,14.341 10.741,13.329 C9.858,12.541 9.261,11.568 9.088,11.27 C8.915,10.973 9.070,10.812 9.218,10.664 C9.352,10.532 9.515,10.323 9.664,10.15 C9.813,9.976 9.862,9.852 9.962,9.652 C10.062,9.454 10.012,9.28 9.937,9.132 C9.862,8.983 9.268,7.525 9.020,6.932 C8.779,6.35 8.534,6.436 8.352,6.428 C8.171,6.42 7.973,6.419 7.775,6.419 C7.577,6.419 7.255,6.494 6.983,6.791 C6.711,7.089 5.942,7.806 5.942,9.264 C5.942,10.723 7.006,12.132 7.155,12.33 C7.304,12.529 9.26,15.525 12.245,16.812 C12.892,17.087 13.397,17.25 13.789,17.37 C14.444,17.571 15.043,17.54 15.514,17.462 C16.037,17.374 17.225,16.739 17.474,16.047 C17.722,15.355 17.722,14.762 17.647,14.637 C17.572,14.512 17.414,14.444 17.115,14.296 L17.415,14.382 Z M12.04,21.988 L12.036,21.988 C10.242,21.988 8.475,21.484 6.947,20.522 L6.586,20.303 L2.852,21.152 L3.716,17.517 L3.475,17.143 C2.421,15.555 1.861,13.696 1.862,11.79 C1.864,6.14 6.389,1.621 12.044,1.621 C14.756,1.622 17.29,2.664 19.184,4.561 C21.078,6.457 22.118,8.994 22.116,11.699 C22.114,17.351 17.589,21.988 12.04,21.988 L12.04,21.988 Z M20.513,3.233 C18.254,0.974 15.236,0 12.039,0 C5.457,0 0.09,5.36 0.088,11.942 C0.087,14.043 0.724,16.093 1.93,17.859 L0,24 L6.3,22.104 C8.008,23.189 9.95,23.758 11.933,23.759 L11.94,23.759 C18.521,23.759 23.888,18.398 23.891,11.816 C23.892,8.629 22.772,5.491 20.513,3.233 L20.513,3.233 Z" fill="#888888" fill-rule="nonzero"></path>
    </g>
</svg>